<svg width="36" height="36" viewBox="0 0 36 36" fill="none" xmlns="http://www.w3.org/2000/svg">
<path d="M18 13.5V4.5" stroke="white" stroke-width="2" stroke-linecap="round" stroke-linejoin="round"/>
<path d="M15 18V16.5C15 15.0858 15 14.3787 15.4394 13.9393C15.8787 13.5 16.5858 13.5 18 13.5C19.4142 13.5 20.1213 13.5 20.5606 13.9393C21 14.3787 21 15.0858 21 16.5V18" stroke="white" stroke-width="2" stroke-linecap="round"/>
<path d="M13.5 27C13.5 29.4854 15.5146 31.5 18 31.5C20.4854 31.5 22.5 29.4854 22.5 27" stroke="white" stroke-width="2" stroke-linecap="round" stroke-linejoin="round"/>
<path d="M7.5 27H28.5" stroke="white" stroke-width="2" stroke-linecap="round" stroke-linejoin="round"/>
<path d="M27 27C27 22.0295 22.9705 18 18 18C13.0294 18 9 22.0295 9 27" stroke="white" stroke-width="2" stroke-linecap="round" stroke-linejoin="round"/>
</svg>
