<svg width="36" height="36" viewBox="0 0 36 36" fill="none" xmlns="http://www.w3.org/2000/svg">
<path d="M26.2164 12.7501C26.2275 12.75 26.2388 12.75 26.25 12.75C29.978 12.75 33 15.772 33 19.5C33 22.1123 31.5162 24.3779 29.3454 25.5M26.2164 12.7501C26.1197 13.8224 25.8178 14.8356 25.3504 15.75M26.2164 12.7501C26.2386 12.503 26.25 12.2528 26.25 12C26.25 7.44365 22.5564 3.75 18 3.75C13.6849 3.75 10.1435 7.06293 9.78063 11.284M9.78063 11.284C5.97597 11.6461 3 14.8505 3 18.75C3 21.7186 4.72478 24.2844 7.22691 25.5M9.78063 11.284C10.0174 11.2615 10.2573 11.25 10.5 11.25C11.5666 11.25 12.5813 11.4727 13.5 11.8741" stroke="#5CE65C" stroke-width="2.25" stroke-linecap="round" stroke-linejoin="round"/>
<path d="M11.7438 23.4971C11.4659 24.0528 11.6911 24.7286 12.2469 25.0064C12.8026 25.2843 13.4784 25.059 13.7562 24.5033L12.75 24.0002L11.7438 23.4971ZM14.3434 29.4744C13.9323 29.0087 13.2214 28.9643 12.7555 29.3754C12.2897 29.7866 12.2454 30.4976 12.6565 30.9633L13.5 30.2189L14.3434 29.4744ZM13.4026 19.6689C13.4959 19.0547 13.0735 18.4811 12.4592 18.3879C11.8449 18.2946 11.2713 18.7172 11.1781 19.3314L12.2904 19.5002L13.4026 19.6689ZM17.4187 25.572C18.0331 25.4787 18.4555 24.9053 18.3622 24.2909C18.2691 23.6766 17.6955 23.2542 17.0812 23.3475L17.25 24.4598L17.4187 25.572ZM24 26.2502H25.125C25.125 22.3151 21.9351 19.1252 18 19.1252V20.2502V21.3752C20.6923 21.3752 22.875 23.5578 22.875 26.2502H24ZM18 32.2502V33.3752C21.9351 33.3752 25.125 30.1853 25.125 26.2502H24H22.875C22.875 28.9425 20.6923 31.1252 18 31.1252V32.2502ZM18 20.2502V19.1252C14.3128 19.1252 12.5295 21.9257 11.7438 23.4971L12.75 24.0002L13.7562 24.5033C14.4705 23.0747 15.6871 21.3752 18 21.3752V20.2502ZM13.5 30.2189L12.6565 30.9633C13.9604 32.4407 15.8718 33.3752 18 33.3752V32.2502V31.1252C16.5441 31.1252 15.2383 30.4884 14.3434 29.4744L13.5 30.2189ZM12.2904 24.4598L13.0859 23.6643C13.2258 23.8041 13.2254 23.9118 13.1948 23.7884C13.1729 23.7 13.1508 23.5527 13.1376 23.3397C13.1115 22.917 13.128 22.3746 13.1676 21.8141C13.2066 21.2609 13.2655 20.723 13.315 20.321C13.3397 20.1206 13.3619 19.9559 13.3778 19.8417C13.3858 19.7849 13.3921 19.7406 13.3964 19.7112C13.3986 19.6964 13.4002 19.6854 13.4013 19.6782C13.4018 19.6748 13.4022 19.6721 13.4024 19.6706C13.4025 19.6698 13.4026 19.6692 13.4026 19.6689C13.4026 19.6691 13.4026 19.6689 12.2904 19.5002C11.1781 19.3314 11.1781 19.3314 11.1781 19.3314C11.1781 19.3313 11.1781 19.3316 11.1781 19.3314C11.1781 19.3316 11.1779 19.3325 11.1779 19.3329C11.1778 19.3337 11.1776 19.3347 11.1774 19.3361C11.177 19.3386 11.1765 19.3422 11.1758 19.3469C11.1744 19.356 11.1725 19.3692 11.17 19.3862C11.1651 19.4202 11.158 19.4691 11.1494 19.5312C11.1321 19.6551 11.1083 19.8318 11.082 20.0456C11.0294 20.4713 10.9658 21.0507 10.9231 21.6558C10.881 22.2534 10.8567 22.91 10.8919 23.4785C10.9093 23.7611 10.9434 24.0575 11.0108 24.3296C11.0696 24.5667 11.1917 24.9521 11.4949 25.2552L12.2904 24.4598ZM17.25 24.4598C17.0812 23.3475 17.0811 23.3477 17.0812 23.3475C17.0811 23.3475 17.0803 23.3475 17.0796 23.3477C17.0779 23.348 17.0754 23.3483 17.0719 23.3489C17.0647 23.3499 17.0538 23.3516 17.0389 23.3537C17.0095 23.358 16.9653 23.3643 16.9083 23.3723C16.7943 23.3882 16.6294 23.4104 16.4292 23.4351C16.0272 23.4846 15.4893 23.5436 14.9361 23.5826C14.3756 23.6222 13.8331 23.6387 13.4104 23.6126C13.1974 23.5994 13.0502 23.5773 12.9617 23.5554C12.8383 23.5248 12.9461 23.5244 13.0859 23.6643L12.2904 24.4598L11.4949 25.2552C11.7981 25.5585 12.1834 25.6806 12.4206 25.7393C12.6927 25.8068 12.9891 25.8408 13.2716 25.8582C13.8402 25.8935 14.4967 25.8692 15.0943 25.827C15.6994 25.7843 16.2789 25.7207 16.7047 25.6682C16.9183 25.6418 17.095 25.6181 17.2191 25.6008C17.281 25.5921 17.3301 25.5851 17.364 25.5801C17.3809 25.5776 17.3941 25.5756 17.4033 25.5743C17.4079 25.5737 17.4115 25.5731 17.4141 25.5726C17.4154 25.5725 17.4165 25.5723 17.4172 25.5722C17.4177 25.5722 17.4184 25.5722 17.4187 25.572C17.4189 25.572 17.4187 25.572 17.25 24.4598Z" fill="#5CE65C"/>
</svg>
