<svg width="36" height="36" viewBox="0 0 36 36" fill="none" xmlns="http://www.w3.org/2000/svg">
<path d="M29.9922 18C29.9922 11.3726 24.6195 6 17.9922 6C11.3648 6 5.99219 11.3726 5.99219 18C5.99219 24.6273 11.3648 30 17.9922 30C24.6195 30 29.9922 24.6273 29.9922 18Z" stroke="#5CE65C" stroke-width="3" stroke-linecap="round" stroke-linejoin="round"/>
<path d="M20.9922 18C20.9922 16.3431 19.649 15 17.9922 15C16.3353 15 14.9922 16.3431 14.9922 18C14.9922 19.6569 16.3353 21 17.9922 21C19.649 21 20.9922 19.6569 20.9922 18Z" stroke="#5CE65C" stroke-width="3" stroke-linecap="round" stroke-linejoin="round"/>
<path d="M17.9925 6V3M17.9925 30V33M23.9935 7.60395L25.4935 5.00587M10.4934 30.9867L16.495 20.5872M28.3885 11.9934L30.9865 10.4934M7.60389 23.9934L5.00581 25.4934M33 17.9923H20.9925M6 17.9923H3M28.396 23.9932L30.9942 25.4933M7.61142 11.9933L5.01334 10.4933M24.0066 28.3884L25.5066 30.9865M10.5065 5.00577L16.3917 15.2153" stroke="#5CE65C" stroke-width="2.25" stroke-linecap="round" stroke-linejoin="round"/>
</svg>
